<svg width="30" height="30" xmlns="http://www.w3.org/2000/svg">

 <g>
  <title>background</title>
  <rect fill="none" id="canvas_background" height="402" width="582" y="-1" x="-1"/>
 </g>
 <g>
  <title>Layer 1</title>
  <path fill="#ffffff" id="svg_1" d="m26,25l-22,0c-1.105,0 -2,-0.895 -2,-2l0,-12c0,-0.552 0.448,-1 1,-1l24,0c0.552,0 1,0.448 1,1l0,12c0,1.105 -0.895,2 -2,2z"/>
  <path fill="#ffffff" id="svg_2" d="m4,3l4.868,0c0.703,0 1.354,0.369 1.715,0.971l2.417,4.029l-11,0l0,-3c0,-1.105 0.895,-2 2,-2z"/>
  <path fill="#ffffff" id="svg_3" d="m26,5l-24,0l0,3l26,0l0,-1c0,-1.105 -0.895,-2 -2,-2z"/>
 </g>
</svg>